<svg xmlns="http://www.w3.org/2000/svg" width="576.556" height="800" viewBox="0 0 576.556 800"><g transform="translate(-1080.185 -110.1)"><path fill="#ed9da0" d="m1198.434 824.849-17.743-2.711-8.4 17.018 16.079 2.115ZM1389.653 827.754l17.742-2.711 8.4 17.018-16.079 2.115Z"/><path fill="#090814" d="m1178.183 823.791 23.586 5.522L1309.46 681.96l80.014 149.744 20.441-4.769-57.827-211.122h-74.966ZM1150.561 872.21a7.69 7.69 0 0 0 5.857-.754l37.2-21.418a7.55 7.55 0 0 0 1.571-11.88l-3.325-3.325-17.639-1.47-26.965 25.887a7.686 7.686 0 0 0 3.3 12.96ZM1438.961 878.09a7.69 7.69 0 0 1-5.857-.754l-37.2-21.418a7.55 7.55 0 0 1-1.571-11.879l3.325-3.325 17.639-1.47 26.965 25.887a7.686 7.686 0 0 1-3.3 12.96Z"/><path fill="#ed9da0" d="m1402.067 382.096 7.35 4.41 15.231-24.75a11.13 11.13 0 0 0-7.187-16.726 11.13 11.13 0 0 0-13.395 10.066ZM1198.471 574.783l-3.049-8.01-27.274 10.033a11.13 11.13 0 0 0-4.695 17.589 11.13 11.13 0 0 0 16.753.368Z"/><circle cx="22.049" cy="22.049" r="22.049" fill="#ed9da0" transform="translate(1291.821 426.191)"/><path fill="#ed9da0" d="M1294.761 495.277h30.869v-33.808l-26.459-2.94Z"/><path fill="#e6e6e6" d="M1272.712 624.632h83.786c-2.954-46.749-5.294-91.927 0-117.6l-4.875-23.377a13.176 13.176 0 0 0-14.533-10.387l-11.464 1.433c-7.764 13.649-17.146 13.517-27.929 1.47h-13.805a13.843 13.843 0 0 0-13.841 14.117 174.9 174.9 0 0 0-3.553 50.188Z"/><path fill="#e6e6e6" d="m1413.826 382.092-11.764-5.879-63.2 104.366 17.639 26.458ZM1198.304 578.966l-10.05-8.477 53.4-74.827a47.33 47.33 0 0 1 47.069-19.057l1.685.309-20.192 35.34-26.595 20.135Z"/><path fill="#2f2e41" d="M1288.373 435.223s-4.12-9.064 6.592-13.184c0 0 9.064-14.832 27.193-4.944 0 0 12.36 4.944 12.36 18.129s4.12 15.656 4.12 15.656-6.136-6.295-7.784-11.239-14.465-6.066-19.409-1.122-17.3 4.12-17.3 4.12l.824 18.129s-4.12-10.712-5.768-10.712-3.302-14.833-.828-14.833"/><ellipse cx="174.423" cy="8.954" fill="#f2f2f2" rx="174.423" ry="8.954" transform="translate(1129.541 892.192)"/><ellipse cx="7.282" cy="5.066" fill="#6c63ff" rx="7.282" ry="5.066" transform="rotate(-21.162 1406.56 -3002.12)"/><ellipse cx="7.282" cy="5.066" fill="#e6e6e6" rx="7.282" ry="5.066" transform="rotate(-21.162 1663.824 -2829.053)"/><ellipse cx="3.202" cy="4.602" fill="#6c63ff" rx="3.202" ry="4.602" transform="rotate(-13.3 2519.45 -4595.694)"/><ellipse cx="3.202" cy="4.602" fill="#ff6584" rx="3.202" ry="4.602" transform="rotate(-13.3 2234.564 -4700.959)"/><ellipse cx="3.202" cy="4.602" fill="#e6e6e6" rx="3.202" ry="4.602" transform="rotate(-13.3 1876.24 -4830.422)"/><ellipse cx="5.066" cy="7.282" fill="#6c63ff" rx="5.066" ry="7.282" transform="rotate(-49.596 968.205 -1202.49)"/><ellipse cx="5.066" cy="7.282" fill="#e6e6e6" rx="5.066" ry="7.282" transform="rotate(-49.596 1025.755 -1261.51)"/><ellipse cx="4.602" cy="3.202" fill="#6c63ff" rx="4.602" ry="3.202" transform="rotate(-41.76 1115.965 -1636.503)"/><ellipse cx="4.602" cy="3.202" fill="#ff6584" rx="4.602" ry="3.202" transform="rotate(-41.76 1105.522 -1538.373)"/><ellipse cx="4.602" cy="3.202" fill="#6c63ff" rx="4.602" ry="3.202" transform="rotate(-41.76 1073.97 -1494.978)"/><ellipse cx="4.602" cy="3.202" fill="#6c63ff" rx="4.602" ry="3.202" transform="rotate(-18.343 1937.95 -4539.7)"/><ellipse cx="7.282" cy="5.066" fill="#6c63ff" rx="7.282" ry="5.066" transform="rotate(-21.162 1422.53 -3455.159)"/><ellipse cx="7.282" cy="5.066" fill="#e6e6e6" rx="7.282" ry="5.066" transform="rotate(-21.162 1520.924 -3294.623)"/><ellipse cx="3.202" cy="4.602" fill="#ff6584" rx="3.202" ry="4.602" transform="rotate(-13.3 1957.888 -5421.948)"/><ellipse cx="3.202" cy="4.602" fill="#d6d6e3" rx="3.202" ry="4.602" transform="rotate(-13.3 1852.245 -5548.856)"/><ellipse cx="5.066" cy="7.282" fill="#6c63ff" rx="5.066" ry="7.282" transform="rotate(-49.596 1205.636 -1440.39)"/><ellipse cx="7.282" cy="5.066" fill="#6c63ff" rx="7.282" ry="5.066" transform="rotate(-21.162 1489.878 -3153.261)"/><ellipse cx="7.282" cy="5.066" fill="#e6e6e6" rx="7.282" ry="5.066" transform="rotate(-21.162 1284.455 -3176.704)"/><ellipse cx="3.202" cy="4.602" fill="#6c63ff" rx="3.202" ry="4.602" transform="rotate(-13.3 2124.79 -4857.687)"/><ellipse cx="3.202" cy="4.602" fill="#ff6584" rx="3.202" ry="4.602" transform="rotate(-13.3 2097.255 -4951.671)"/><ellipse cx="3.202" cy="4.602" fill="#d6d6e3" rx="3.202" ry="4.602" transform="rotate(-13.3 1991.617 -5078.583)"/><ellipse cx="7.282" cy="5.066" fill="#6c63ff" rx="7.282" ry="5.066" transform="rotate(-21.162 1548.408 -3958.53)"/><ellipse cx="7.282" cy="5.066" fill="#e6e6e6" rx="7.282" ry="5.066" transform="rotate(-21.162 1477.756 -3816.656)"/><ellipse cx="3.202" cy="4.602" fill="#6c63ff" rx="3.202" ry="4.602" transform="rotate(-13.3 2117.735 -6137.833)"/><ellipse cx="3.202" cy="4.602" fill="#ff6584" rx="3.202" ry="4.602" transform="rotate(-13.3 1832.849 -6243.094)"/><ellipse cx="3.202" cy="4.602" fill="#e6e6e6" rx="3.202" ry="4.602" transform="rotate(-13.3 1996.665 -6358.861)"/><ellipse cx="3.202" cy="4.602" fill="#e6e6e6" rx="3.202" ry="4.602" transform="rotate(-13.3 2181.071 -6462.861)"/><ellipse cx="7.282" cy="5.066" fill="#6c63ff" rx="7.282" ry="5.066" transform="rotate(124 588.886 471.629)"/><ellipse cx="3.202" cy="4.602" fill="#6c63ff" rx="3.202" ry="4.602" transform="rotate(132 519.72 432.341)"/><ellipse cx="7.282" cy="5.066" fill="#6c63ff" rx="7.282" ry="5.066" transform="rotate(-21.162 1209.004 -2932.648)"/><ellipse cx="7.282" cy="5.066" fill="#e6e6e6" rx="7.282" ry="5.066" transform="rotate(-21.162 1466.27 -2759.581)"/><ellipse cx="3.202" cy="4.602" fill="#6c63ff" rx="3.202" ry="4.602" transform="rotate(-13.3 1961.788 -4466.87)"/><ellipse cx="3.202" cy="4.602" fill="#ff6584" rx="3.202" ry="4.602" transform="rotate(-13.3 1676.907 -4572.131)"/><ellipse cx="3.202" cy="4.602" fill="#e6e6e6" rx="3.202" ry="4.602" transform="rotate(-13.3 1571.264 -4699.044)"/><path fill="#6c63ff" d="M1414.205 110.1a48.665 48.665 0 0 0-48.665 48.665c0 22.6 19.816 52.036 38.4 66.527a15.8 15.8 0 0 0 5.479 2.75l1.825 6.57a3.156 3.156 0 0 0 3.041 2.311h.231a3.156 3.156 0 0 0 3.081-2.471l1.5-6.751a16.3 16.3 0 0 0 4.588-2.52c20.795-16.283 39.187-43.05 39.187-66.417a48.665 48.665 0 0 0-48.667-48.664"/><path fill="#3f3d56" d="M1422.316 231.026c-5.848 14.651-10.551 11.313-14.747 0v-2.949h14.747z"/><path fill="#3f3d56" d="m1415.68 229.558-.332 27.805-.015.944-.066 96.593v4.483l-.015 1.416h-1.482l.015-1.342v-4.561l.074-96.593.081-6.658.265-22.106Z"/><path fill="#3f3d56" d="M1415.415 360.799h-1.489l-.14-1.342-.029-4.557-.6-96.593-3.038-28.919 1.467-.155 2.352 22.415.7 6.658.295 96.593.007 1.423.324 3.06Z"/><path fill="#3f3d56" d="m1419.765 229.388-3.038 28.92-.855 96.593-.052 5.9h-1.349l.472-4.476.007-1.423.295-96.593.1-.944 2.949-28.13Z"/><g fill="#f2f2f2"><path d="M1642.795 218.04a37.72 37.72 0 0 0-53.058 5.509c-11.042 13.6-13.5 40.993-9.4 58.791a12.2 12.2 0 0 0 1.953 4.332l-2.112 4.845a2.446 2.446 0 0 0 .7 2.876l.139.113a2.446 2.446 0 0 0 3.061.018l4.2-3.329a12.6 12.6 0 0 0 3.992.725c20.468.361 44.612-6.76 56.028-20.821a37.72 37.72 0 0 0-5.509-53.058Z"/><path d="M1586.286 291.606s-3.806-1.884-19.177 16.921-42.306 58.3-42.306 58.3l-2.19 2.7-.7.845-.892-.724.664-.8 2.23-2.745s27.452-40.356 42.826-59.163 18.665-16.059 18.665-16.059Z"/></g><g fill="#f2f2f2"><path d="M1144.271 124.695a34.626 34.626 0 0 1 48.707 5.057c10.137 12.486 12.391 37.631 8.625 53.969a11.2 11.2 0 0 1-1.793 3.976l1.933 4.448a2.245 2.245 0 0 1-.643 2.64l-.128.1a2.245 2.245 0 0 1-2.81.017l-3.856-3.056a11.6 11.6 0 0 1-3.664.665c-18.789.331-40.953-6.206-51.433-19.114a34.626 34.626 0 0 1 5.057-48.707Z"/><path d="M1196.146 192.228s3.494-1.73 17.6 15.533 38.836 53.519 38.836 53.519l2.01 2.476.643.775.819-.665-.61-.735-2.044-2.517s-25.2-37.047-39.314-54.311-17.138-14.746-17.138-14.746Z"/></g></g></svg>