<svg xmlns="http://www.w3.org/2000/svg" width="969" height="694.136" viewBox="0 0 969 694.136"><g transform="rotate(3 -3898.275 16614.82)"><rect width="104.934" height="187.267" fill="#fff" rx="8"/><path fill="#090814" d="M12.915 3.229a9.7 9.7 0 0 0-9.686 9.686v161.437a9.7 9.7 0 0 0 9.686 9.686h79.1a9.7 9.7 0 0 0 9.686-9.686V12.915a9.7 9.7 0 0 0-9.686-9.686zm0-3.229h79.1a12.915 12.915 0 0 1 12.915 12.915v161.437a12.915 12.915 0 0 1-12.915 12.915h-79.1A12.915 12.915 0 0 1 0 174.352V12.915A12.915 12.915 0 0 1 12.915 0"/><g fill="#6c63ff"><path d="M39.43 90.042H28.914a1.052 1.052 0 1 1 0-2.1H39.43a1.052 1.052 0 0 1 0 2.1M58.36 90.043H47.844a1.052 1.052 0 0 1 0-2.1H58.36a1.052 1.052 0 0 1 0 2.1M67.825 98.458H57.309a1.052 1.052 0 0 1 0-2.1h10.516a1.052 1.052 0 0 1 0 2.1M48.954 98.458h-20.04a1.052 1.052 0 1 1 0-2.1h20.04a1.052 1.052 0 0 1 0 2.1M86.814 90.043H66.775a1.052 1.052 0 1 1 0-2.1h20.04a1.052 1.052 0 1 1 0 2.1ZM46.63 74.11H26.591a1.052 1.052 0 1 1 0-2.1h20.04a1.052 1.052 0 0 1 0 2.1ZM48.278 80.258a.942.942 0 0 1-.579-1.69l5.136-3.984a1.886 1.886 0 0 0 .228-2.769l-4.312-4.666a.943.943 0 1 1 1.384-1.281l6.4 6.928a.94.94 0 0 1-.114 1.383l-7.566 5.881a.94.94 0 0 1-.577.2Z"/><path d="M25.576 80.258a.942.942 0 0 0 .579-1.685l-5.133-3.989a1.886 1.886 0 0 1-.228-2.769l4.307-4.667a.943.943 0 0 0-1.383-1.281l-6.397 6.928a.94.94 0 0 0 .114 1.383l7.562 5.878a.94.94 0 0 0 .578.2ZM56.991 116.492h-20.04a1.052 1.052 0 1 1 0-2.1h20.04a1.052 1.052 0 0 1 0 2.1M60.522 121.699a.942.942 0 0 1-.579-1.687l5.136-3.987a1.886 1.886 0 0 0 .228-2.768l-4.31-4.664a.942.942 0 1 1 1.382-1.281l6.394 6.926a.94.94 0 0 1-.114 1.383l-7.563 5.878a.94.94 0 0 1-.577.2ZM25.573 121.699a.942.942 0 0 0 .579-1.685l-5.13-3.989a1.886 1.886 0 0 1-.228-2.769l4.308-4.666a.943.943 0 1 0-1.383-1.281l-6.396 6.929a.94.94 0 0 0 .114 1.383l7.562 5.878a.94.94 0 0 0 .577.2ZM27.364 118.751l4.212-9.636a1.051 1.051 0 0 1 1.925.842l-4.212 9.636a1.051 1.051 0 0 1-1.925-.842"/></g></g><path fill="#ed9da0" d="m470.467 615.528-184.289 22.46 21.224-63.671 159.94-5.085c7.631-9.014 19.841-15.293 33.967-16.247 24.717-1.67 45.874 13.559 47.256 34.014s-17.537 38.389-42.254 40.06c-14.126.954-27.07-3.626-35.844-11.531"/><path fill="#e6e6e6" d="m337.797 360.586 12.267 169.218 60.953 41.348-13.269 47.754-167.072 19.67 62.183-266.624 31.9-18.3a8.72 8.72 0 0 1 13.034 6.933Z"/><path fill="#ed9da0" d="M254.187 146.687a89.628 89.628 0 1 1 76.349 122.7l-58.644 99.867-54.645-101.168s26.748-15.473 46.434-37.116a89.53 89.53 0 0 1-9.494-84.287Z"/><path fill="#e6e6e6" d="M314.378 324.046 213.565 215.274s-39.795-18.571-53.06 39.795c0 0-70.483 25.2-95.6 108.772S0 694.136 0 694.136l305.092-15.918 31.546-310.608a45.08 45.08 0 0 0-22.261-43.565Z"/><path fill="#d6d6e3" d="M266.599 363.89c-.733-11.055-5.859-23.54-15.235-37.108-7.534-10.9-17.808-22.512-30.536-34.508a393 393 0 0 0-43.5-35.256l.843-1.247c.054.037 5.508 3.732 13.579 9.912 7.446 5.7 18.712 14.753 30.1 25.481 12.808 12.07 23.154 23.763 30.751 34.754 9.537 13.8 14.753 26.54 15.5 37.872Z"/><path fill="#090814" d="M611.51 515.06s-.748-.511-13.265-34.489l-122.205 82.21 37.314 31.863Z"/><path fill="#6c63ff" d="M605.891 516.746s-.668-.452-11.845-30.517l-109.125 72.743 33.317 28.2Z"/><path fill="#ed9da0" d="m458.875 622.596-184.292 22.462 21.224-63.671 159.94-5.085c7.631-9.014 19.841-15.293 33.967-16.247 24.717-1.67 45.874 13.559 47.256 34.014s-17.534 38.389-42.252 40.058c-14.126.954-27.07-3.626-35.844-11.531Z"/><path fill="#e6e6e6" d="M230.809 537.609V378.18s-39.34-136.054-140.381-66.575c0 0 28.956 327.854 79.363 341.927s122.037-7.151 122.037-7.151l24.452-78.309Z"/><path fill="#d6d6e3" d="M209.96 659.104c-15.268 0-28.849-1.631-40.371-4.848-3.2-.895-6.416-3.038-9.544-6.369a62.2 62.2 0 0 1-8.8-12.729c-5.348-9.82-10.679-23.539-15.843-40.774-8.682-28.976-17.073-68.331-24.94-116.973-3.862-23.879-9.681-63.089-15.472-114.274-3.463-30.611-5.3-51.26-5.314-51.465l1.5-.132c.018.2 1.849 20.841 5.311 51.436 3.194 28.236 8.47 70.969 15.462 114.2 7.858 48.578 16.234 87.867 24.898 116.778 5.135 17.135 10.425 30.756 15.723 40.485 5.755 10.566 11.617 16.746 17.423 18.367 11.431 3.192 24.932 4.8 40.131 4.792a276 276 0 0 0 39.479-3.11 338 338 0 0 0 42.011-8.83l.427 1.443a340 340 0 0 1-42.221 8.876 277.5 277.5 0 0 1-39.7 3.126ZM316.026 568.781l-85.97-30.64V378.179h1.5v158.9l84.97 30.284Z"/><path fill="#090814" d="M320.541 164.914c8.016 6.588 20.18 1.763 28.383-4.569s16.538-14.494 26.906-14.21c14.17.387 22.849 15.999 35.955 21.395 14.804 6.088 32.365-2.648 41.516-15.778s11.908-29.538 14.426-45.346l-11.557 14.38a36.32 36.32 0 0 0 3.369-35.334l-11.862 24.282a28.526 28.526 0 0 0-15.321-37.406l-8.114 13.814a264.6 264.6 0 0 0-45.127-31.37c-16.376-8.29-35.054-13.14-53.184-10.277-27.113 4.313-49.253 25.426-61.598 49.968s-16.371 52.285-19.56 79.568c-.801 6.861-1.06 15.005 4.332 19.312a14.01 14.01 0 0 0 17.126-1.505 37.5 37.5 0 0 0 9.616-15.696c3.403-8.723 6.55-17.875 12.819-24.85s16.746-11.182 25.24-7.214 10.929 18.048 6.635 20.836"/><g transform="translate(636.454 117.759)"><path fill="#6c63ff" d="M6.457 0h245.384a6.457 6.457 0 0 1 6.459 6.457v132.379a6.457 6.457 0 0 1-6.457 6.457H6.457A6.457 6.457 0 0 1 0 138.836V6.457A6.457 6.457 0 0 1 6.457 0"/><rect width="11.031" height="5.773" fill="#fff" rx="1.561" transform="translate(38.161 24.312)"/><rect width="11.031" height="5.773" fill="#fff" rx="1.561" transform="translate(105.322 24.312)"/><rect width="11.031" height="5.773" fill="#fff" rx="1.561" transform="translate(124.347 24.312)"/><rect width="38.453" height="5.773" fill="#fff" rx="1.561" transform="translate(54.52 23.829)"/><rect width="38.453" height="5.773" fill="#fff" rx="1.561" transform="translate(148.377 23.829)"/><rect width="11.031" height="5.773" fill="#fff" rx="1.561" transform="translate(54.198 37.339)"/><rect width="11.031" height="5.773" fill="#fff" rx="1.561" transform="translate(123.228 37.339)"/><rect width="11.031" height="5.773" fill="#fff" rx="1.561" transform="translate(142.26 37.339)"/><rect width="38.453" height="5.773" fill="#fff" rx="1.561" transform="translate(75.144 36.859)"/><rect width="38.453" height="5.773" fill="#fff" rx="1.561" transform="translate(168.953 36.859)"/><rect width="11.031" height="5.773" fill="#fff" rx="1.561" transform="translate(73.98 50.371)"/><rect width="11.031" height="5.773" fill="#fff" rx="1.561" transform="translate(141.134 50.371)"/><rect width="11.031" height="5.773" fill="#fff" rx="1.561" transform="translate(160.163 50.371)"/><rect width="38.453" height="5.773" fill="#fff" rx="1.561" transform="translate(93.453 49.888)"/><rect width="38.453" height="5.773" fill="#fff" rx="1.561" transform="translate(184.993 49.888)"/><rect width="11.031" height="5.773" fill="#fff" rx="1.561" transform="translate(91.886 63.399)"/><rect width="11.031" height="5.773" fill="#fff" rx="1.561" transform="translate(159.043 63.399)"/><rect width="11.031" height="5.773" fill="#fff" rx="1.561" transform="translate(178.072 63.399)"/><rect width="38.453" height="5.773" fill="#fff" rx="1.561" transform="translate(111.76 62.917)"/><rect width="11.031" height="5.773" fill="#fff" rx="1.561" transform="translate(105.322 115.21)"/><rect width="11.031" height="5.773" fill="#fff" rx="1.561" transform="translate(124.347 115.21)"/><rect width="38.453" height="5.773" fill="#fff" rx="1.561" transform="translate(148.377 115.692)"/><rect width="11.031" height="5.773" fill="#fff" rx="1.561" transform="translate(38.161 115.21)"/><rect width="38.453" height="5.773" fill="#fff" rx="1.561" transform="translate(54.52 115.692)"/><rect width="11.031" height="5.773" fill="#fff" rx="1.561" transform="translate(54.198 102.181)"/><rect width="11.031" height="5.773" fill="#fff" rx="1.561" transform="translate(123.228 102.181)"/><rect width="11.031" height="5.773" fill="#fff" rx="1.561" transform="translate(142.26 102.181)"/><rect width="38.453" height="5.773" fill="#fff" rx="1.561" transform="translate(75.144 102.662)"/><rect width="11.031" height="5.773" fill="#fff" rx="1.561" transform="translate(73.98 89.151)"/><rect width="11.031" height="5.773" fill="#fff" rx="1.561" transform="translate(141.134 89.151)"/><rect width="11.031" height="5.773" fill="#fff" rx="1.561" transform="translate(160.163 89.151)"/><rect width="38.453" height="5.773" fill="#fff" rx="1.561" transform="translate(93.453 89.632)"/><rect width="11.031" height="5.773" fill="#fff" rx="1.561" transform="translate(91.886 76.121)"/><rect width="11.031" height="5.773" fill="#fff" rx="1.561" transform="translate(159.043 76.121)"/><rect width="11.031" height="5.773" fill="#fff" rx="1.561" transform="translate(178.072 76.121)"/><rect width="38.453" height="5.773" fill="#fff" rx="1.561" transform="translate(111.76 76.603)"/></g></svg>